<svg width="21" height="21" viewBox="0 0 21 21" fill="none" xmlns="http://www.w3.org/2000/svg">
<path d="M10.5 0.742249C9.18678 0.742249 7.88642 1.00091 6.67317 1.50345C5.45991 2.006 4.35752 2.74259 3.42893 3.67118C1.55357 5.54654 0.5 8.09008 0.5 10.7422C0.5 15.1622 3.37 18.9122 7.34 20.2422C7.84 20.3222 8 20.0122 8 19.7422V18.0522C5.23 18.6522 4.64 16.7122 4.64 16.7122C4.18 15.5522 3.53 15.2422 3.53 15.2422C2.62 14.6222 3.6 14.6422 3.6 14.6422C4.6 14.7122 5.13 15.6722 5.13 15.6722C6 17.1922 7.47 16.7422 8.04 16.5022C8.13 15.8522 8.39 15.4122 8.67 15.1622C6.45 14.9122 4.12 14.0522 4.12 10.2422C4.12 9.13225 4.5 8.24225 5.15 7.53225C5.05 7.28225 4.7 6.24225 5.25 4.89225C5.25 4.89225 6.09 4.62225 8 5.91225C8.79 5.69225 9.65 5.58225 10.5 5.58225C11.35 5.58225 12.21 5.69225 13 5.91225C14.91 4.62225 15.75 4.89225 15.75 4.89225C16.3 6.24225 15.95 7.28225 15.85 7.53225C16.5 8.24225 16.88 9.13225 16.88 10.2422C16.88 14.0622 14.54 14.9022 12.31 15.1522C12.67 15.4622 13 16.0722 13 17.0022V19.7422C13 20.0122 13.16 20.3322 13.67 20.2422C17.64 18.9022 20.5 15.1622 20.5 10.7422C20.5 9.42903 20.2413 8.12867 19.7388 6.91541C19.2362 5.70216 18.4997 4.59977 17.5711 3.67118C16.6425 2.74259 15.5401 2.006 14.3268 1.50345C13.1136 1.00091 11.8132 0.742249 10.5 0.742249Z" fill="white"/>
</svg>
