<svg width="25" height="19" viewBox="0 0 25 19" fill="none" xmlns="http://www.w3.org/2000/svg">
<path d="M23.9629 4.63611C23.9629 2.59466 22.4613 0.952428 20.6059 0.952428C18.0926 0.834931 15.5294 0.789566 12.91 0.789566H12.0935C9.4804 0.789566 6.9127 0.834932 4.39945 0.952882C2.54853 0.952882 1.04693 2.60419 1.04693 4.64564C0.93352 6.2602 0.885432 7.87522 0.888154 9.49023C0.883618 11.1052 0.935032 12.7218 1.0424 14.3398C1.0424 16.3813 2.544 18.0371 4.39491 18.0371C7.03519 18.1596 9.74352 18.214 12.4972 18.2095C15.2554 18.2186 17.9562 18.1611 20.5995 18.0371C22.455 18.0371 23.9566 16.3813 23.9566 14.3398C24.0654 12.7203 24.1153 11.1052 24.1108 9.48569C24.1211 7.87068 24.0718 6.25415 23.9629 4.63611ZM10.2788 13.9406V5.02626L16.8568 9.48116L10.2788 13.9406Z" fill="white"/>
</svg>
