<svg width="25" height="15" viewBox="0 0 25 15" fill="none" xmlns="http://www.w3.org/2000/svg">
<path fill-rule="evenodd" clip-rule="evenodd" d="M23.5792 1.64361C23.7407 1.11482 23.5792 0.726257 22.8109 0.726257H20.2702C19.6242 0.726257 19.3263 1.06192 19.1648 1.43204C19.1648 1.43204 17.8727 4.52543 16.0423 6.53474C15.4502 7.11642 15.181 7.30153 14.858 7.30153C14.6964 7.30153 14.4541 7.11642 14.4541 6.58768V1.64361C14.4541 1.00906 14.2752 0.726257 13.7368 0.726257H9.74419C9.34049 0.726257 9.09769 1.02076 9.09769 1.29988C9.09769 1.90142 10.0128 2.04014 10.1072 3.73226V7.4073C10.1072 8.21299 9.95902 8.35911 9.636 8.35911C8.77468 8.35911 6.6795 5.25191 5.43686 1.69646C5.19334 1.0054 4.94909 0.726257 4.29974 0.726257H1.759C1.03307 0.726257 0.887877 1.06192 0.887877 1.43204C0.887877 2.09304 1.74925 5.37149 4.89855 9.70747C6.99808 12.6686 9.95616 14.2737 12.6479 14.2737C14.2629 14.2737 14.4628 13.9173 14.4628 13.3032V11.0651C14.4628 10.3521 14.6157 10.2098 15.1272 10.2098C15.504 10.2098 16.15 10.3949 17.6573 11.8226C19.3801 13.5147 19.6641 14.2737 20.6331 14.2737H23.1739C23.8997 14.2737 24.2627 13.9173 24.0533 13.2137C23.8242 12.5125 23.0017 11.4952 21.9104 10.2891C21.3182 9.6017 20.4298 8.86143 20.1606 8.4912C19.7838 8.01539 19.8915 7.80385 20.1606 7.38088C20.1606 7.38088 23.2562 3.09772 23.5792 1.64361Z" fill="white"/>
</svg>
